<svg width="109" height="137" viewBox="0 0 109 137" fill="none" xmlns="http://www.w3.org/2000/svg">
<path d="M85.4648 104.328C95.2914 128.004 75.6654 137 54.9331 137C34.2009 137 17 125.5 24.9019 104.328C35.7709 75.2067 33.4107 79 54.9331 79C82.4617 79 73.5 75.5 85.4648 104.328Z" fill="#F7B813"/>
<path d="M18.4338 16.7422C18.7224 13.7117 22.1557 12.1015 24.6703 13.8172L79.8112 51.4405C83.2265 53.7707 81.2935 59.1185 77.1776 58.7266L18.982 53.1855C16.7828 52.9761 15.1697 51.0236 15.3791 48.8244L18.4338 16.7422Z" fill="#F7B813"/>
<path d="M89.2908 16.7422C89.0022 13.7117 85.5689 12.1015 83.0543 13.8172L27.9134 51.4405C24.4982 53.7707 26.4311 59.1185 30.547 58.7266L88.7426 53.1855C90.9418 52.9761 92.5549 51.0236 92.3455 48.8244L89.2908 16.7422Z" fill="#F7B813"/>
<rect x="15" y="21" width="78" height="64" rx="30" fill="#F7B813"/>
<path d="M59.5 61.5C59.5 64.2189 57.5125 69 54.5 69C51.4875 69 49.5 64.2189 49.5 61.5C53.5 60.5 53 61 54.5 59C55.5 60.5 55 61 59.5 61.5Z" fill="#F57D4A"/>
<path d="M73.5 51.5368C73.5 53.2052 72.1657 54.5 70.5 54.5C68.8343 54.5 67.5 53.2052 67.5 51.5368C67.5 49.8547 68.8481 48.5 70.5 48.5C72.1519 48.5 73.5 49.8547 73.5 51.5368Z" fill="black" stroke="black"/>
<path d="M42 51.5C42 53.433 40.433 55 38.5 55C36.567 55 35 53.433 35 51.5C35 49.567 36.567 48 38.5 48C40.433 48 42 49.567 42 51.5Z" fill="black"/>
<path d="M42 51.5C42 53.433 40.433 55 38.5 55C36.567 55 35 53.433 35 51.5C35 49.567 36.567 48 38.5 48C40.433 48 42 49.567 42 51.5Z" fill="black"/>
<path d="M22.0944 53.509L27.9865 54.6417M22.0944 63.6238L27.9865 62.491M22 58.5H28M86.9056 52.509L81.0135 53.6417M86.9056 62.6238L81.0135 61.491M87 57.5H81" stroke="black"/>
<path fill-rule="evenodd" clip-rule="evenodd" d="M49.0275 21C49.0093 21.1642 49 21.331 49 21.5V29.5C49 31.9853 51.0147 34 53.5 34C55.9853 34 58 31.9853 58 29.5V21.5C58 21.331 57.9907 21.1642 57.9725 21H49.0275ZM39 21.6001C40.9387 21.2066 42.9452 21 45 21H47.9725C47.9907 21.1642 48 21.331 48 21.5V29.5C48 31.9853 45.9853 34 43.5 34C41.0147 34 39 31.9853 39 29.5V21.6001ZM59.0275 21H63C64.7033 21 66.3734 21.1419 67.9992 21.4147C67.9997 21.443 68 21.4715 68 21.5V29.5C68 31.9853 65.9853 34 63.5 34C61.0147 34 59 31.9853 59 29.5V21.5C59 21.331 59.0093 21.1642 59.0275 21Z" fill="#E96300" fill-opacity="0.8"/>
<path fill-rule="evenodd" clip-rule="evenodd" d="M45 58C45 60.2091 47.2386 62 50 62C51.9791 62 53.6896 61.0801 54.5 59.7456C55.3104 61.0801 57.0209 62 59 62C61.7614 62 64 60.2091 64 58H63C63 59.4602 61.4289 61 59 61C56.5711 61 55 59.4602 55 58H54C54 59.4602 52.4289 61 50 61C47.5711 61 46 59.4602 46 58H45Z" fill="black"/>
<path d="M38.4049 48.2927C38.4348 48.2006 38.5652 48.2006 38.5951 48.2927L39.0388 49.6584C39.0522 49.6996 39.0906 49.7275 39.1339 49.7275H40.5699C40.6667 49.7275 40.707 49.8514 40.6287 49.9084L39.467 50.7524C39.4319 50.7778 39.4172 50.823 39.4306 50.8642L39.8744 52.2298C39.9043 52.322 39.7988 52.3986 39.7205 52.3416L38.5588 51.4976C38.5237 51.4722 38.4763 51.4722 38.4412 51.4976L37.2795 52.3416C37.2012 52.3986 37.0957 52.322 37.1256 52.2298L37.5694 50.8642C37.5828 50.823 37.5681 50.7778 37.533 50.7524L36.3713 49.9084C36.293 49.8514 36.3333 49.7275 36.4301 49.7275H37.8661C37.9094 49.7275 37.9478 49.6996 37.9612 49.6584L38.4049 48.2927Z" fill="white"/>
<path d="M36.3847 52.375C36.4133 52.287 36.5378 52.287 36.5663 52.375V52.375C36.5791 52.4143 36.6158 52.441 36.6572 52.441V52.441C36.7497 52.441 36.7881 52.5594 36.7133 52.6137V52.6137C36.6798 52.638 36.6658 52.6811 36.6786 52.7205V52.7205C36.7072 52.8085 36.6065 52.8816 36.5317 52.8273V52.8273C36.4982 52.8029 36.4529 52.8029 36.4194 52.8273V52.8273C36.3446 52.8816 36.2439 52.8085 36.2725 52.7205V52.7205C36.2852 52.6811 36.2712 52.638 36.2378 52.6137V52.6137C36.1629 52.5594 36.2014 52.441 36.2939 52.441V52.441C36.3353 52.441 36.3719 52.4143 36.3847 52.375V52.375Z" fill="white"/>
<path d="M38.4976 52.6216C38.561 52.5484 38.6811 52.5991 38.6729 52.6956L38.6434 53.0404C38.6397 53.0836 38.6642 53.1242 38.7041 53.1411L39.023 53.2757C39.1122 53.3134 39.1011 53.4433 39.0068 53.4652L38.6697 53.5437C38.6275 53.5536 38.5964 53.5895 38.5927 53.6326L38.5632 53.9775C38.555 54.074 38.428 54.1036 38.378 54.0206L38.1991 53.7243C38.1768 53.6872 38.133 53.6687 38.0908 53.6786L37.7537 53.7571C37.6594 53.7791 37.592 53.6675 37.6555 53.5942L37.882 53.3326C37.9104 53.2998 37.9144 53.2525 37.892 53.2154L37.7132 52.9191C37.6631 52.8362 37.7485 52.7376 37.8377 52.7753L38.1566 52.9099C38.1965 52.9268 38.2427 52.916 38.2711 52.8833L38.4976 52.6216Z" fill="white"/>
<path d="M70.5951 48.2927C70.5652 48.2006 70.4348 48.2006 70.4049 48.2927L69.9612 49.6584C69.9478 49.6996 69.9094 49.7275 69.8661 49.7275H68.4301C68.3333 49.7275 68.293 49.8514 68.3713 49.9084L69.533 50.7524C69.5681 50.7778 69.5828 50.823 69.5694 50.8642L69.1256 52.2298C69.0957 52.322 69.2012 52.3986 69.2795 52.3416L70.4412 51.4976C70.4763 51.4722 70.5237 51.4722 70.5588 51.4976L71.7205 52.3416C71.7988 52.3986 71.9043 52.322 71.8744 52.2298L71.4306 50.8642C71.4172 50.823 71.4319 50.7778 71.467 50.7524L72.6287 49.9084C72.707 49.8514 72.6667 49.7275 72.5699 49.7275H71.1339C71.0906 49.7275 71.0522 49.6996 71.0388 49.6584L70.5951 48.2927Z" fill="white"/>
<path d="M72.6153 52.375C72.5867 52.287 72.4622 52.287 72.4337 52.375V52.375C72.4209 52.4143 72.3842 52.441 72.3428 52.441V52.441C72.2503 52.441 72.2119 52.5594 72.2867 52.6137V52.6137C72.3202 52.638 72.3342 52.6811 72.3214 52.7205V52.7205C72.2928 52.8085 72.3935 52.8816 72.4683 52.8273V52.8273C72.5018 52.8029 72.5471 52.8029 72.5806 52.8273V52.8273C72.6554 52.8816 72.7561 52.8085 72.7275 52.7205V52.7205C72.7148 52.6811 72.7288 52.638 72.7622 52.6137V52.6137C72.8371 52.5594 72.7986 52.441 72.7061 52.441V52.441C72.6647 52.441 72.6281 52.4143 72.6153 52.375V52.375Z" fill="white"/>
<path d="M70.5024 52.6216C70.439 52.5484 70.3189 52.5991 70.3271 52.6956L70.3566 53.0404C70.3603 53.0836 70.3358 53.1242 70.2959 53.1411L69.977 53.2757C69.8878 53.3134 69.8989 53.4433 69.9932 53.4652L70.3303 53.5437C70.3725 53.5536 70.4036 53.5895 70.4073 53.6326L70.4368 53.9775C70.445 54.074 70.572 54.1036 70.622 54.0206L70.8009 53.7243C70.8232 53.6872 70.867 53.6687 70.9092 53.6786L71.2463 53.7571C71.3406 53.7791 71.408 53.6675 71.3445 53.5942L71.118 53.3326C71.0896 53.2998 71.0856 53.2525 71.108 53.2154L71.2868 52.9191C71.3369 52.8362 71.2515 52.7376 71.1623 52.7753L70.8434 52.9099C70.8035 52.9268 70.7573 52.916 70.7289 52.8833L70.5024 52.6216Z" fill="white"/>
<path d="M40.5332 86.9985C41.3708 86.3541 42.527 86.0678 43.4657 85.587C44.4915 85.0615 45.4119 84.3959 46.4591 83.9199C48.4285 83.0247 50.6423 82.5455 52.677 83.6036C55.4298 85.0351 53.6492 88.6527 52.1902 90.1865C49.069 93.4678 43.5149 95.6359 39 94.8834M68.5846 86.9985C67.7469 86.3541 66.5908 86.0678 65.6521 85.587C64.6262 85.0615 63.7058 84.3959 62.6587 83.9199C60.6893 83.0247 58.4755 82.5455 56.4408 83.6036C53.6879 85.0351 55.4686 88.6527 56.9275 90.1865C60.0487 93.4678 65.6029 95.6359 70.1178 94.8834" stroke="white" stroke-linecap="round"/>
<path d="M5 52C5 52 5.12099 55.0788 6.35045 56.3795C7.4217 57.5127 10 58 10 58C10 58 7.4217 58.4873 6.35045 59.6205C5.12099 60.9212 5 64 5 64C5 64 4.87901 60.9212 3.64955 59.6205C2.5783 58.4873 0 58 0 58C0 58 2.5783 57.5127 3.64955 56.3795C4.87901 55.0788 5 52 5 52Z" fill="#FFFA80"/>
<path d="M78 0C78 0 78.0968 2.56569 79.0804 3.64955C79.9374 4.59392 82 5 82 5C82 5 79.9374 5.40608 79.0804 6.35045C78.0968 7.43431 78 10 78 10C78 10 77.9032 7.43431 76.9196 6.35045C76.0626 5.40608 74 5 74 5C74 5 76.0626 4.59392 76.9196 3.64955C77.9032 2.56569 78 0 78 0Z" fill="#FFFA80"/>
<path d="M7 17C7 17 7.16938 21.3617 8.89064 23.2042C10.3904 24.8097 14 25.5 14 25.5C14 25.5 10.3904 26.1903 8.89064 27.7958C7.16938 29.6383 7 34 7 34C7 34 6.83062 29.6383 5.10936 27.7958C3.60962 26.1903 0 25.5 0 25.5C0 25.5 3.60962 24.8097 5.10936 23.2042C6.83062 21.3617 7 17 7 17Z" fill="#FFFA80"/>
<path d="M36 0C36 0 36.121 3.07883 37.3505 4.37946C38.4217 5.5127 41 6 41 6C41 6 38.4217 6.4873 37.3505 7.62054C36.121 8.92117 36 12 36 12C36 12 35.879 8.92117 34.6495 7.62054C33.5783 6.4873 31 6 31 6C31 6 33.5783 5.5127 34.6495 4.37946C35.879 3.07883 36 0 36 0Z" fill="#FFFA80"/>
<path d="M14.5 79C14.5 79 14.5847 81.0526 15.4453 81.9196C16.1952 82.6751 18 83 18 83C18 83 16.1952 83.3249 15.4453 84.0804C14.5847 84.9474 14.5 87 14.5 87C14.5 87 14.4153 84.9474 13.5547 84.0804C12.8048 83.3249 11 83 11 83C11 83 12.8048 82.6751 13.5547 81.9196C14.4153 81.0526 14.5 79 14.5 79Z" fill="#FFFA80"/>
<path d="M102.5 52C102.5 52 102.657 56.1051 104.256 57.8393C105.648 59.3503 109 60 109 60C109 60 105.648 60.6497 104.256 62.1607C102.657 63.8949 102.5 68 102.5 68C102.5 68 102.343 63.8949 100.744 62.1607C99.3518 60.6497 96 60 96 60C96 60 99.3518 59.3503 100.744 57.8393C102.343 56.1051 102.5 52 102.5 52Z" fill="#FFFA80"/>
<path d="M100 23C100 23 100.121 26.0788 101.35 27.3795C102.422 28.5127 105 29 105 29C105 29 102.422 29.4873 101.35 30.6205C100.121 31.9212 100 35 100 35C100 35 99.879 31.9212 98.6495 30.6205C97.5783 29.4873 95 29 95 29C95 29 97.5783 28.5127 98.6495 27.3795C99.879 26.0788 100 23 100 23Z" fill="#FFFA80"/>
<path d="M92 78C92 78 92.0726 79.796 92.8103 80.5547C93.453 81.2157 95 81.5 95 81.5C95 81.5 93.453 81.7843 92.8103 82.4453C92.0726 83.204 92 85 92 85C92 85 91.9274 83.204 91.1897 82.4453C90.547 81.7843 89 81.5 89 81.5C89 81.5 90.547 81.2157 91.1897 80.5547C91.9274 79.796 92 78 92 78Z" fill="#FFFA80"/>
</svg>
