<svg width="86" height="127" viewBox="0 0 86 127" fill="none" xmlns="http://www.w3.org/2000/svg">
<path d="M74.4648 94.3282C84.2914 118.004 64.6654 127 43.9331 127C23.2009 127 6.00002 115.5 13.9019 94.3282C24.7709 65.2067 22.4107 69 43.9331 69C71.4617 69 62.5 65.5 74.4648 94.3282Z" fill="#F7B813"/>
<path d="M7.43385 6.74219C7.72239 3.71175 11.1557 2.10146 13.6703 3.81719L68.8112 41.4405C72.2265 43.7707 70.2935 49.1185 66.1776 48.7266L7.98199 43.1855C5.7828 42.9761 4.16975 41.0236 4.37914 38.8244L7.43385 6.74219Z" fill="#F7B813"/>
<path d="M78.2908 6.74219C78.0022 3.71175 74.5689 2.10146 72.0543 3.81719L16.9134 41.4405C13.4982 43.7707 15.4311 49.1185 19.547 48.7266L77.7426 43.1855C79.9418 42.9761 81.5549 41.0236 81.3455 38.8244L78.2908 6.74219Z" fill="#F7B813"/>
<rect x="4" y="11" width="78" height="64" rx="30" fill="#F7B813"/>
<circle cx="59.5" cy="41.5" r="3.5" fill="black"/>
<circle cx="27.5" cy="41.5" r="3.5" fill="black"/>
<path fill-rule="evenodd" clip-rule="evenodd" d="M34 48C34 50.2091 36.2386 52 39 52C40.9791 52 42.6896 51.0801 43.5 49.7456C44.3104 51.0801 46.0209 52 48 52C50.7614 52 53 50.2091 53 48H52C52 49.4602 50.4289 51 48 51C45.5711 51 44 49.4602 44 48H43C43 49.4602 41.4289 51 39 51C36.5711 51 35 49.4602 35 48H34Z" fill="black"/>
<line x1="11.0944" y1="43.509" x2="16.9865" y2="44.6417" stroke="black"/>
<line y1="-0.5" x2="6" y2="-0.5" transform="matrix(0.982017 -0.188792 -0.188792 -0.982017 11 53.1328)" stroke="black"/>
<line x1="11" y1="48.5" x2="17" y2="48.5" stroke="black"/>
<line y1="-0.5" x2="6" y2="-0.5" transform="matrix(-0.982017 0.188792 0.188792 0.982017 76 43)" stroke="black"/>
<line x1="75.9056" y1="52.6238" x2="70.0135" y2="51.491" stroke="black"/>
<line y1="-0.5" x2="6" y2="-0.5" transform="matrix(-1 0 0 1 76 48)" stroke="black"/>
<path fill-rule="evenodd" clip-rule="evenodd" d="M38.0275 11C38.0093 11.1642 38 11.331 38 11.5V19.5C38 21.9853 40.0147 24 42.5 24C44.9853 24 47 21.9853 47 19.5V11.5C47 11.331 46.9907 11.1642 46.9725 11H38.0275ZM28 11.6001C29.9387 11.2066 31.9452 11 34 11H36.9725C36.9907 11.1642 37 11.331 37 11.5V19.5C37 21.9853 34.9853 24 32.5 24C30.0147 24 28 21.9853 28 19.5V11.6001ZM48.0275 11H52C53.7033 11 55.3734 11.1419 56.9992 11.4147C56.9997 11.443 57 11.4715 57 11.5V19.5C57 21.9853 54.9853 24 52.5 24C50.0147 24 48 21.9853 48 19.5V11.5C48 11.331 48.0093 11.1642 48.0275 11Z" fill="#E96300" fill-opacity="0.8"/>
</svg>
