<svg width="86" height="127" viewBox="0 0 86 127" fill="none" xmlns="http://www.w3.org/2000/svg">
<path d="M74.4648 94.3282C84.2914 118.004 64.6654 127 43.9331 127C23.2009 127 6.00002 115.5 13.9019 94.3282C24.7709 65.2067 22.4107 69 43.9331 69C71.4617 69 62.5 65.5 74.4648 94.3282Z" fill="#F7B813"/>
<path d="M7.43385 6.74219C7.72239 3.71175 11.1557 2.10146 13.6703 3.81719L68.8112 41.4405C72.2265 43.7707 70.2935 49.1185 66.1776 48.7266L7.98199 43.1855C5.7828 42.9761 4.16975 41.0236 4.37914 38.8244L7.43385 6.74219Z" fill="#F7B813"/>
<path d="M78.2908 6.74219C78.0022 3.71175 74.5689 2.10146 72.0543 3.81719L16.9134 41.4405C13.4982 43.7707 15.4311 49.1185 19.547 48.7266L77.7426 43.1855C79.9418 42.9761 81.5549 41.0236 81.3455 38.8244L78.2908 6.74219Z" fill="#F7B813"/>
<rect x="4" y="11" width="78" height="64" rx="30" fill="#F7B813"/>
<circle cx="59.5" cy="41.5" r="3.5" fill="black"/>
<circle cx="27.5" cy="41.5" r="3.5" fill="black"/>
<path d="M11.0944 43.509L16.9865 44.6418M11.0944 53.6238L16.9865 52.491M11 48.5H17M75.9056 42.509L70.0135 43.6418M75.9056 52.6238L70.0135 51.491M76 47.5H70" stroke="black"/>
<path fill-rule="evenodd" clip-rule="evenodd" d="M38.0275 11C38.0093 11.1642 38 11.331 38 11.5V19.5C38 21.9853 40.0147 24 42.5 24C44.9853 24 47 21.9853 47 19.5V11.5C47 11.331 46.9907 11.1642 46.9725 11H38.0275ZM28 11.6001C29.9387 11.2066 31.9452 11 34 11H36.9725C36.9907 11.1642 37 11.331 37 11.5V19.5C37 21.9853 34.9853 24 32.5 24C30.0147 24 28 21.9853 28 19.5V11.6001ZM48.0275 11H52C53.7033 11 55.3734 11.1419 56.9992 11.4147C56.9997 11.443 57 11.4715 57 11.5V19.5C57 21.9853 54.9853 24 52.5 24C50.0147 24 48 21.9853 48 19.5V11.5C48 11.331 48.0093 11.1642 48.0275 11Z" fill="#E96300" fill-opacity="0.8"/>
<path fill-rule="evenodd" clip-rule="evenodd" d="M47 50.9033C46.5316 50.8112 46.089 50.6553 45.6936 50.444C45.0251 50.0867 44.5421 49.599 44.2686 49.0709C44.0886 48.7233 44 48.3607 44 48H43C43 48.3607 42.9114 48.7233 42.7314 49.0709C42.4579 49.599 41.9749 50.0867 41.3064 50.444C40.911 50.6553 40.4684 50.8112 40 50.9033V51.9192C40.632 51.816 41.2363 51.6154 41.7779 51.3259C42.5191 50.9297 43.1129 50.3829 43.5 49.7436C43.8871 50.3829 44.4809 50.9297 45.2221 51.3259C45.7637 51.6154 46.368 51.816 47 51.9192V50.9033Z" fill="black"/>
<path d="M25.8364 45.5695C25.0311 46.2914 24.3099 47.1761 24.2324 48.3004C24.1847 48.9926 24.5501 49.7525 25.3594 49.4929C26.1772 49.2306 26.1584 48.3585 26.1584 47.6624C26.1584 47.0151 26.2565 46.2933 26.051 45.6768" stroke="#D8FDFF" stroke-width="3" stroke-linecap="round"/>
<line x1="23.9102" y1="38.6011" x2="29.8939" y2="37.5081" stroke="black"/>
<line y1="-0.5" x2="6.08276" y2="-0.5" transform="matrix(-0.983726 -0.179676 -0.179676 0.983726 62.9838 39.0929)" stroke="black"/>
</svg>
