<svg width="90" height="90" viewBox="0 0 90 90" fill="none" xmlns="http://www.w3.org/2000/svg">
<rect width="90" height="90" rx="20" fill="white"/>
<path d="M9.43385 13.7422C9.72239 10.7117 13.1557 9.10146 15.6703 10.8172L70.8112 48.4405C74.2265 50.7707 72.2935 56.1185 68.1776 55.7266L9.98199 50.1855C7.7828 49.9761 6.16975 48.0236 6.37914 45.8244L9.43385 13.7422Z" fill="#F7B813"/>
<path d="M80.2908 13.7422C80.0022 10.7117 76.5689 9.10146 74.0543 10.8172L18.9134 48.4405C15.4982 50.7707 17.4311 56.1185 21.547 55.7266L79.7426 50.1855C81.9418 49.9761 83.5549 48.0236 83.3455 45.8244L80.2908 13.7422Z" fill="#F7B813"/>
<rect x="6" y="18" width="78" height="64" rx="30" fill="#F7B813"/>
<circle cx="61.5" cy="48.5" r="3.5" fill="black"/>
<circle cx="29.5" cy="48.5" r="3.5" fill="black"/>
<path fill-rule="evenodd" clip-rule="evenodd" d="M36 55C36 57.2091 38.2386 59 41 59C42.9791 59 44.6896 58.0801 45.5 56.7456C46.3104 58.0801 48.0209 59 50 59C52.7614 59 55 57.2091 55 55H54C54 56.4602 52.4289 58 50 58C47.5711 58 46 56.4602 46 55H45C45 56.4602 43.4289 58 41 58C38.5711 58 37 56.4602 37 55H36Z" fill="black"/>
<line x1="13.0944" y1="50.509" x2="18.9865" y2="51.6417" stroke="black"/>
<line y1="-0.5" x2="6" y2="-0.5" transform="matrix(0.982017 -0.188792 -0.188792 -0.982017 13 60.1328)" stroke="black"/>
<line x1="13" y1="55.5" x2="19" y2="55.5" stroke="black"/>
<line y1="-0.5" x2="6" y2="-0.5" transform="matrix(-0.982017 0.188792 0.188792 0.982017 78 50)" stroke="black"/>
<line x1="77.9056" y1="59.6238" x2="72.0135" y2="58.491" stroke="black"/>
<line y1="-0.5" x2="6" y2="-0.5" transform="matrix(-1 0 0 1 78 55)" stroke="black"/>
<path fill-rule="evenodd" clip-rule="evenodd" d="M40.0275 18C40.0093 18.1642 40 18.331 40 18.5V26.5C40 28.9853 42.0147 31 44.5 31C46.9853 31 49 28.9853 49 26.5V18.5C49 18.331 48.9907 18.1642 48.9725 18H40.0275ZM30 18.6001C31.9387 18.2066 33.9452 18 36 18H38.9725C38.9907 18.1642 39 18.331 39 18.5V26.5C39 28.9853 36.9853 31 34.5 31C32.0147 31 30 28.9853 30 26.5V18.6001ZM50.0275 18H54C55.7033 18 57.3734 18.1419 58.9992 18.4147C58.9997 18.443 59 18.4715 59 18.5V26.5C59 28.9853 56.9853 31 54.5 31C52.0147 31 50 28.9853 50 26.5V18.5C50 18.331 50.0093 18.1642 50.0275 18Z" fill="#E96300" fill-opacity="0.8"/>
</svg>
