<svg width="503" height="146" viewBox="0 0 503 146" fill="none" xmlns="http://www.w3.org/2000/svg">
<path d="M186.891 75.2402L175.758 86.4287C175.201 84.8701 174.44 83.4785 173.476 82.2539C172.511 80.9922 171.416 79.9346 170.191 79.0811C169.004 78.2275 167.705 77.5781 166.295 77.1328C164.885 76.6875 163.438 76.4648 161.953 76.4648C159.875 76.4648 157.908 76.8916 156.053 77.7451C154.234 78.5986 152.639 79.8047 151.266 81.3633C149.93 82.8848 148.872 84.7031 148.093 86.8184C147.313 88.9336 146.924 91.2715 146.924 93.832C146.924 95.9102 147.313 97.8584 148.093 99.6768C148.872 101.495 149.93 103.091 151.266 104.464C152.639 105.837 154.234 106.913 156.053 107.692C157.908 108.472 159.875 108.861 161.953 108.861C163.438 108.861 164.866 108.657 166.239 108.249C167.612 107.841 168.893 107.266 170.08 106.523C171.305 105.744 172.381 104.816 173.309 103.74C174.273 102.627 175.053 101.402 175.646 100.066L186.779 111.255C185.369 113.259 183.736 115.059 181.881 116.654C180.062 118.25 178.077 119.604 175.925 120.718C173.81 121.831 171.564 122.666 169.189 123.223C166.852 123.816 164.439 124.113 161.953 124.113C157.76 124.113 153.808 123.334 150.097 121.775C146.423 120.18 143.194 118.009 140.411 115.263C137.665 112.517 135.494 109.307 133.898 105.633C132.303 101.959 131.505 98.0254 131.505 93.832C131.505 89.2676 132.303 85 133.898 81.0293C135.494 77.0586 137.665 73.6074 140.411 70.6758C143.194 67.707 146.423 65.3691 150.097 63.6621C153.808 61.9551 157.76 61.1016 161.953 61.1016C164.439 61.1016 166.87 61.417 169.245 62.0479C171.657 62.6787 173.939 63.6064 176.092 64.8311C178.281 66.0186 180.285 67.4844 182.104 69.2285C183.959 70.9727 185.555 72.9766 186.891 75.2402ZM251.071 92.6631C251.071 97.1162 250.273 101.272 248.678 105.132C247.082 108.954 244.911 112.275 242.165 115.096C239.419 117.879 236.19 120.087 232.479 121.72C228.806 123.315 224.854 124.113 220.623 124.113C216.43 124.113 212.478 123.315 208.767 121.72C205.093 120.087 201.864 117.879 199.081 115.096C196.335 112.275 194.164 108.954 192.568 105.132C190.973 101.272 190.175 97.1162 190.175 92.6631C190.175 88.1357 190.973 83.9424 192.568 80.083C194.164 76.2236 196.335 72.9023 199.081 70.1191C201.864 67.2988 205.093 65.0908 208.767 63.4951C212.478 61.8994 216.43 61.1016 220.623 61.1016C224.854 61.1016 228.806 61.8623 232.479 63.3838C236.19 64.8682 239.419 67.002 242.165 69.7852C244.911 72.5312 247.082 75.8525 248.678 79.749C250.273 83.6084 251.071 87.9131 251.071 92.6631ZM235.764 92.6631C235.764 90.2139 235.355 88.0059 234.539 86.0391C233.76 84.0352 232.684 82.3281 231.311 80.918C229.938 79.4707 228.323 78.376 226.468 77.6338C224.649 76.8545 222.701 76.4648 220.623 76.4648C218.545 76.4648 216.578 76.8545 214.723 77.6338C212.904 78.376 211.309 79.4707 209.936 80.918C208.6 82.3281 207.542 84.0352 206.763 86.0391C205.983 88.0059 205.594 90.2139 205.594 92.6631C205.594 94.9639 205.983 97.0977 206.763 99.0645C207.542 101.031 208.6 102.738 209.936 104.186C211.309 105.633 212.904 106.783 214.723 107.637C216.578 108.453 218.545 108.861 220.623 108.861C222.701 108.861 224.649 108.472 226.468 107.692C228.323 106.913 229.938 105.818 231.311 104.408C232.684 102.998 233.76 101.291 234.539 99.2871C235.355 97.2832 235.764 95.0752 235.764 92.6631ZM274.673 123H259.477V63.3838H263.15L268.16 70.4531C270.609 68.2266 273.393 66.5195 276.51 65.332C279.627 64.1074 282.855 63.4951 286.195 63.4951H299.61V78.6357H286.195C284.6 78.6357 283.097 78.9326 281.687 79.5264C280.276 80.1201 279.052 80.9365 278.013 81.9756C276.974 83.0146 276.157 84.2393 275.563 85.6494C274.97 87.0596 274.673 88.5625 274.673 90.1582V123ZM329.279 108.416C329.873 108.602 330.467 108.731 331.061 108.806C331.654 108.843 332.248 108.861 332.842 108.861C334.326 108.861 335.755 108.657 337.128 108.249C338.501 107.841 339.781 107.266 340.969 106.523C342.193 105.744 343.27 104.816 344.197 103.74C345.162 102.627 345.941 101.402 346.535 100.066L357.668 111.255C356.258 113.259 354.625 115.059 352.77 116.654C350.951 118.25 348.966 119.604 346.813 120.718C344.698 121.831 342.453 122.666 340.078 123.223C337.74 123.816 335.328 124.113 332.842 124.113C328.648 124.113 324.696 123.334 320.985 121.775C317.312 120.217 314.083 118.046 311.3 115.263C308.554 112.479 306.383 109.177 304.787 105.354C303.191 101.495 302.394 97.2646 302.394 92.6631C302.394 87.9502 303.191 83.6455 304.787 79.749C306.383 75.8525 308.554 72.5312 311.3 69.7852C314.083 67.0391 317.312 64.9053 320.985 63.3838C324.696 61.8623 328.648 61.1016 332.842 61.1016C335.328 61.1016 337.759 61.3984 340.134 61.9922C342.509 62.5859 344.754 63.4395 346.869 64.5527C349.021 65.666 351.025 67.0391 352.881 68.6719C354.736 70.2676 356.369 72.0674 357.779 74.0713L329.279 108.416ZM337.072 77.0771C336.367 76.8174 335.662 76.6504 334.957 76.5762C334.289 76.502 333.584 76.4648 332.842 76.4648C330.764 76.4648 328.797 76.8545 326.941 77.6338C325.123 78.376 323.527 79.4521 322.154 80.8623C320.818 82.2725 319.761 83.9795 318.981 85.9834C318.202 87.9502 317.812 90.1768 317.812 92.6631C317.812 93.2197 317.831 93.8506 317.868 94.5557C317.942 95.2607 318.035 95.9844 318.146 96.7266C318.295 97.4316 318.462 98.1182 318.647 98.7861C318.833 99.4541 319.074 100.048 319.371 100.567L337.072 77.0771ZM430.031 91.1045C430.031 95.5205 429.196 99.6768 427.526 103.573C425.856 107.433 423.574 110.81 420.68 113.704C417.785 116.562 414.39 118.825 410.493 120.495C406.634 122.165 402.496 123 398.08 123C393.664 123 389.508 122.165 385.611 120.495C381.752 118.825 378.375 116.562 375.48 113.704C372.623 110.81 370.359 107.433 368.689 103.573C367.02 99.6768 366.185 95.5205 366.185 91.1045V43.1777H382.104V91.1045C382.104 93.2939 382.513 95.3535 383.329 97.2832C384.183 99.2129 385.333 100.901 386.78 102.349C388.228 103.796 389.916 104.946 391.846 105.8C393.812 106.616 395.891 107.024 398.08 107.024C400.27 107.024 402.329 106.616 404.259 105.8C406.226 104.946 407.933 103.796 409.38 102.349C410.827 100.901 411.959 99.2129 412.775 97.2832C413.629 95.3535 414.056 93.2939 414.056 91.1045V43.1777H430.031V91.1045ZM456.472 145.711H441.164V63.3838H444.838L450.905 70.5645C452.278 69.2656 453.781 68.041 455.414 66.8906C457.047 65.7402 458.735 64.7568 460.479 63.9404C462.261 63.0869 464.098 62.4189 465.99 61.9365C467.883 61.4541 469.794 61.2129 471.724 61.2129C475.917 61.2129 479.851 61.9736 483.524 63.4951C487.235 64.9795 490.464 67.0947 493.21 69.8408C495.993 72.5869 498.183 75.9082 499.778 79.8047C501.374 83.6641 502.172 87.9502 502.172 92.6631C502.172 97.5615 501.374 101.978 499.778 105.911C498.183 109.808 495.993 113.129 493.21 115.875C490.464 118.584 487.235 120.662 483.524 122.109C479.851 123.557 475.917 124.28 471.724 124.28C470.388 124.28 469.052 124.132 467.716 123.835C466.417 123.538 465.118 123.148 463.819 122.666C462.558 122.146 461.296 121.571 460.034 120.94C458.81 120.31 457.622 119.66 456.472 118.992V145.711ZM486.92 92.6631C486.92 90.1396 486.512 87.876 485.695 85.8721C484.916 83.8682 483.84 82.1797 482.467 80.8066C481.094 79.3965 479.479 78.3203 477.624 77.5781C475.769 76.8359 473.802 76.4648 471.724 76.4648C469.646 76.4648 467.679 76.8359 465.823 77.5781C464.005 78.3203 462.409 79.3965 461.036 80.8066C459.663 82.1797 458.568 83.8682 457.752 85.8721C456.973 87.876 456.583 90.1396 456.583 92.6631C456.583 95.0752 456.973 97.2832 457.752 99.2871C458.568 101.291 459.663 102.998 461.036 104.408C462.409 105.818 464.005 106.913 465.823 107.692C467.679 108.472 469.646 108.861 471.724 108.861C473.802 108.861 475.769 108.472 477.624 107.692C479.479 106.913 481.094 105.818 482.467 104.408C483.84 102.998 484.916 101.291 485.695 99.2871C486.512 97.2832 486.92 95.0752 486.92 92.6631Z" fill="#F7B813"/>
<path d="M63 112C173.5 123.5 51.5 45.5 123.005 52.3968" stroke="#F7B813" stroke-width="18" stroke-linecap="round"/>
<path d="M74.4648 94.3282C84.2914 118.004 64.6654 127 43.9331 127C23.2009 127 6.00002 115.5 13.9019 94.3282C24.7709 65.2067 22.4107 69 43.9331 69C71.4617 69 62.5 65.5 74.4648 94.3282Z" fill="#F7B813"/>
<path d="M7.43385 6.74219C7.72239 3.71175 11.1557 2.10146 13.6703 3.81719L68.8112 41.4405C72.2265 43.7707 70.2935 49.1185 66.1776 48.7266L7.98199 43.1855C5.7828 42.9761 4.16975 41.0236 4.37914 38.8244L7.43385 6.74219Z" fill="#F7B813"/>
<path d="M78.2908 6.74219C78.0022 3.71175 74.5689 2.10146 72.0543 3.81719L16.9134 41.4405C13.4982 43.7707 15.4311 49.1185 19.547 48.7266L77.7426 43.1855C79.9418 42.9761 81.5549 41.0236 81.3455 38.8244L78.2908 6.74219Z" fill="#F7B813"/>
<rect x="4" y="11" width="78" height="64" rx="30" fill="#F7B813"/>
<circle cx="59.5" cy="41.5" r="3.5" fill="black"/>
<circle cx="27.5" cy="41.5" r="3.5" fill="black"/>
<path fill-rule="evenodd" clip-rule="evenodd" d="M34 48C34 50.2091 36.2386 52 39 52C40.9791 52 42.6896 51.0801 43.5 49.7456C44.3104 51.0801 46.0209 52 48 52C50.7614 52 53 50.2091 53 48H52C52 49.4602 50.4289 51 48 51C45.5711 51 44 49.4602 44 48H43C43 49.4602 41.4289 51 39 51C36.5711 51 35 49.4602 35 48H34Z" fill="black"/>
<line x1="11.0944" y1="43.509" x2="16.9865" y2="44.6417" stroke="black"/>
<line y1="-0.5" x2="6" y2="-0.5" transform="matrix(0.982017 -0.188792 -0.188792 -0.982017 11 53.1328)" stroke="black"/>
<line x1="11" y1="48.5" x2="17" y2="48.5" stroke="black"/>
<line y1="-0.5" x2="6" y2="-0.5" transform="matrix(-0.982017 0.188792 0.188792 0.982017 76 43)" stroke="black"/>
<line x1="75.9056" y1="52.6238" x2="70.0135" y2="51.491" stroke="black"/>
<line y1="-0.5" x2="6" y2="-0.5" transform="matrix(-1 0 0 1 76 48)" stroke="black"/>
<path fill-rule="evenodd" clip-rule="evenodd" d="M38.0275 11C38.0093 11.1642 38 11.331 38 11.5V19.5C38 21.9853 40.0147 24 42.5 24C44.9853 24 47 21.9853 47 19.5V11.5C47 11.331 46.9907 11.1642 46.9725 11H38.0275ZM28 11.6001C29.9387 11.2066 31.9452 11 34 11H36.9725C36.9907 11.1642 37 11.331 37 11.5V19.5C37 21.9853 34.9853 24 32.5 24C30.0147 24 28 21.9853 28 19.5V11.6001ZM48.0275 11H52C53.7033 11 55.3734 11.1419 56.9992 11.4147C56.9997 11.443 57 11.4715 57 11.5V19.5C57 21.9853 54.9853 24 52.5 24C50.0147 24 48 21.9853 48 19.5V11.5C48 11.331 48.0093 11.1642 48.0275 11Z" fill="#E96300" fill-opacity="0.8"/>
</svg>
