<svg width="27" height="27" viewBox="0 0 27 27" fill="none" xmlns="http://www.w3.org/2000/svg">
<circle cx="13.4348" cy="13.4348" r="12.5217" fill="#D9D9D9"/>
<path d="M17.1833 17.6004L16.8375 17.9616L17.1987 18.3073L17.5444 17.9462L17.1833 17.6004ZM13.7558 14.3191L14.1016 13.958L13.7558 13.627L13.41 13.958L13.7558 14.3191ZM17.8748 16.878L18.236 17.2238L18.5817 16.8626L18.2206 16.5169L17.8748 16.878ZM14.4788 13.627L14.1331 13.2658L13.7558 13.627L14.1331 13.9881L14.4788 13.627ZM17.8749 10.3758L18.2206 10.737L18.5818 10.3912L18.236 10.0301L17.8749 10.3758ZM17.1833 9.65349L17.5445 9.30772L17.1987 8.94655L16.8376 9.29231L17.1833 9.65349ZM13.7558 12.9348L13.41 13.2959L13.7558 13.627L14.1016 13.2959L13.7558 12.9348ZM10.3282 9.65344L10.674 9.29227L10.3128 8.9465L9.96708 9.30768L10.3282 9.65344ZM9.63672 10.3758L9.27555 10.03L8.92978 10.3912L9.29095 10.737L9.63672 10.3758ZM13.0328 13.627L13.3785 13.9881L13.7558 13.627L13.3785 13.2658L13.0328 13.627ZM9.63672 16.8781L9.29096 16.5169L8.92978 16.8627L9.27554 17.2239L9.63672 16.8781ZM10.3282 17.6005L9.96707 17.9462L10.3128 18.3074L10.674 17.9616L10.3282 17.6005ZM17.529 17.2392L14.1016 13.958L13.41 14.6803L16.8375 17.9616L17.529 17.2392ZM17.5136 16.5323L16.8221 17.2546L17.5444 17.9462L18.236 17.2238L17.5136 16.5323ZM14.1331 13.9881L17.529 17.2392L18.2206 16.5169L14.8246 13.2658L14.1331 13.9881ZM14.8246 13.9881L18.2206 10.737L17.5291 10.0147L14.1331 13.2658L14.8246 13.9881ZM18.236 10.0301L17.5445 9.30772L16.8222 9.99925L17.5137 10.7216L18.236 10.0301ZM16.8376 9.29231L13.41 12.5736L14.1016 13.2959L17.5291 10.0147L16.8376 9.29231ZM9.98248 10.0146L13.41 13.2959L14.1016 12.5736L10.674 9.29227L9.98248 10.0146ZM9.99789 10.7216L10.6894 9.99921L9.96708 9.30768L9.27555 10.03L9.99789 10.7216ZM13.3785 13.2658L9.98248 10.0146L9.29095 10.737L12.687 13.9881L13.3785 13.2658ZM12.687 13.2658L9.29096 16.5169L9.98248 17.2393L13.3785 13.9881L12.687 13.2658ZM9.27554 17.2239L9.96707 17.9462L10.6894 17.2547L9.99789 16.5323L9.27554 17.2239ZM10.674 17.9616L14.1016 14.6803L13.41 13.958L9.98248 17.2393L10.674 17.9616Z" fill="#4B4B4B"/>
</svg>
